<svg width="27" height="27" viewBox="0 0 27 27" fill="none" xmlns="http://www.w3.org/2000/svg">
<path d="M27 24.5694L20.1834 17.7528C21.5371 15.9049 22.3467 13.6349 22.3467 11.1734C22.3467 5.01254 17.3342 0 11.1734 0C5.01254 0 0 5.01254 0 11.1734C0 17.3342 5.01254 22.3467 11.1734 22.3467C13.6341 22.3467 15.9049 21.5371 17.7528 20.1834L24.5694 27L27 24.5694ZM1.71898 11.1734C1.71898 5.96056 5.96056 1.71898 11.1734 1.71898C16.3862 1.71898 20.6277 5.96056 20.6277 11.1734C20.6277 16.3862 16.3862 20.6277 11.1734 20.6277C5.96056 20.6277 1.71898 16.3862 1.71898 11.1734Z" fill="#242424"/>
</svg>
